# xmcd
#
# Track frame offsets: 
#        150
#        24088
#        46758
#        64891
#        90782
#        112958
#        128254
#        152358
#        176764
#        197340
#        218731
#
# Disc length: 3088 seconds
#
# Revision: 0
# Processed by: cddbd v1.5.2PL0 Copyright (c) Steve Scherf et al.
# Submitted via: ExactAudioCopyFreeDBPlugin 1.0
#
DISCID=730c0e0b
DTITLE=Chris Jones and Steve Baker - Gotta Look Up
DYEAR=2005
DGENRE=Blues
TTITLE0=Damn Good Run
TTITLE1=Elena's Smile
TTITLE2=U Get What You Pay
TTITLE3=One Word
TTITLE4=Coal Tattoo
TTITLE5=Doublecrossed And Blue
TTITLE6=Sweet Simone
TTITLE7=Vigilante Man
TTITLE8=Goin' Down That Road Feelin' Bad
TTITLE9=Gotta Look Up
TTITLE10=Maria's Lullaby
EXTD=
EXTT0=
EXTT1=
EXTT2=
EXTT3=
EXTT4=
EXTT5=
EXTT6=
EXTT7=
EXTT8=
EXTT9=
EXTT10=
PLAYORDER=
